<?xml version="1.0" standalone="no"?>
<!DOCTYPE svg PUBLIC "-//W3C//DTD SVG 20010904//EN"
 "http://www.w3.org/TR/2001/REC-SVG-20010904/DTD/svg10.dtd">
<svg version="1.0" xmlns="http://www.w3.org/2000/svg"
 width="235.000000pt" height="235.000000pt" viewBox="0 0 235.000000 235.000000"
 preserveAspectRatio="xMidYMid meet">
<metadata>
Created by potrace 1.14, written by Peter Selinger 2001-2017
</metadata>
<g transform="translate(0.000000,235.000000) scale(0.100000,-0.100000)"
fill="#000000" stroke="none">
<path d="M246 2294 c-112 -36 -191 -114 -229 -229 -16 -44 -17 -128 -17 -856
0 -721 2 -812 17 -855 32 -97 90 -163 183 -211 50 -25 64 -28 160 -28 95 0
110 3 162 29 70 35 128 94 164 165 21 44 28 73 32 145 2 50 5 92 6 93 1 2 49
-68 107 -154 57 -86 121 -178 141 -204 70 -89 180 -147 299 -156 181 -15 337
79 438 262 54 99 527 947 554 995 85 148 102 266 57 399 -71 210 -289 334
-503 284 -143 -33 -226 -104 -327 -281 -38 -68 -70 -125 -70 -126 0 -1 -33
-62 -74 -134 l-73 -132 -186 278 c-102 153 -202 295 -223 316 -21 21 -62 52
-91 68 -29 16 -53 33 -54 36 -15 121 -99 237 -206 283 -64 28 -199 35 -267 13z"/>
</g>
</svg>
