<svg width="271" height="178" viewBox="0 0 271 178" fill="none" xmlns="http://www.w3.org/2000/svg">
<path d="M-39 117.061C-39 114.852 -37.2091 113.061 -35 113.061H6.17598C8.38512 113.061 10.176 114.852 10.176 117.061V178.493H-39V117.061Z" fill="url(#paint0_linear_670_8830)" fill-opacity="0.76"/>
<path d="M21.1039 95.5376C21.1039 93.3285 22.8948 91.5376 25.1039 91.5376H66.2799C68.4891 91.5376 70.2799 93.3285 70.2799 95.5376V178.493H21.1039V95.5376Z" fill="url(#paint1_linear_670_8830)" fill-opacity="0.76"/>
<path d="M81.2079 80.9019C81.2079 78.6927 82.9987 76.9019 85.2079 76.9019H126.384C128.593 76.9019 130.384 78.6927 130.384 80.9019V178.493H81.2079V80.9019Z" fill="url(#paint2_linear_670_8830)" fill-opacity="0.76"/>
<path d="M141.312 53.3518C141.312 51.1427 143.103 49.3518 145.312 49.3518H186.488C188.697 49.3518 190.488 51.1427 190.488 53.3518V178.493H141.312V53.3518Z" fill="url(#paint3_linear_670_8830)" fill-opacity="0.76"/>
<path d="M201.416 28.3848C201.416 26.1756 203.207 24.3848 205.416 24.3848H246.592C248.801 24.3848 250.592 26.1756 250.592 28.3848V178.493H201.416V28.3848Z" fill="url(#paint4_linear_670_8830)" fill-opacity="0.76"/>
<path d="M261.52 6C261.52 3.79086 263.311 2 265.52 2H306.696C308.905 2 310.696 3.79086 310.696 6V178.493H261.52V6Z" fill="url(#paint5_linear_670_8830)" fill-opacity="0.76"/>
<path opacity="0.55" d="M-37.634 176.771C-1.66266 180.358 90.6047 150.505 163.851 99.2861C257.422 33.8547 245.128 42.8946 310.013 2.86084" stroke="#EA580C" stroke-width="4" stroke-miterlimit="1" stroke-linecap="round"/>
<path opacity="0.55" d="M-26.0503 178.493C-30.9279 178.859 -35.2734 178.864 -39 178.493H-26.0503C16.1532 175.327 98.1929 145.199 163.851 99.2862C257.422 33.8547 245.811 42.4641 310.696 2.43042V178.493H-26.0503Z" fill="url(#paint6_linear_670_8830)"/>
<defs>
<linearGradient id="paint0_linear_670_8830" x1="-14.412" y1="113.061" x2="-14.412" y2="178.493" gradientUnits="userSpaceOnUse">
<stop stop-color="#A8A29E" stop-opacity="0.17"/>
<stop offset="0.958333" stop-color="#FAFAF9"/>
</linearGradient>
<linearGradient id="paint1_linear_670_8830" x1="45.6919" y1="91.5376" x2="45.6919" y2="178.493" gradientUnits="userSpaceOnUse">
<stop stop-color="#A8A29E" stop-opacity="0.17"/>
<stop offset="0.958333" stop-color="#FAFAF9"/>
</linearGradient>
<linearGradient id="paint2_linear_670_8830" x1="105.796" y1="76.9019" x2="105.796" y2="178.493" gradientUnits="userSpaceOnUse">
<stop stop-color="#A8A29E" stop-opacity="0.17"/>
<stop offset="0.958333" stop-color="#FAFAF9"/>
</linearGradient>
<linearGradient id="paint3_linear_670_8830" x1="165.9" y1="49.3518" x2="165.9" y2="178.493" gradientUnits="userSpaceOnUse">
<stop stop-color="#A8A29E" stop-opacity="0.17"/>
<stop offset="0.958333" stop-color="#FAFAF9"/>
</linearGradient>
<linearGradient id="paint4_linear_670_8830" x1="226.004" y1="24.3848" x2="226.004" y2="178.493" gradientUnits="userSpaceOnUse">
<stop stop-color="#A8A29E" stop-opacity="0.17"/>
<stop offset="0.958333" stop-color="#FAFAF9"/>
</linearGradient>
<linearGradient id="paint5_linear_670_8830" x1="286.108" y1="2" x2="286.108" y2="178.493" gradientUnits="userSpaceOnUse">
<stop stop-color="#A8A29E" stop-opacity="0.17"/>
<stop offset="0.958333" stop-color="#FAFAF9"/>
</linearGradient>
<linearGradient id="paint6_linear_670_8830" x1="73.695" y1="125.545" x2="165.104" y2="260.399" gradientUnits="userSpaceOnUse">
<stop stop-color="#EA580C"/>
<stop offset="1" stop-color="#EA580C" stop-opacity="0"/>
</linearGradient>
</defs>
</svg>
