<svg width="271" height="144" viewBox="0 0 271 144" fill="none" xmlns="http://www.w3.org/2000/svg">
<g opacity="0.76">
<path d="M127.613 53.6667H81.4384C79.3973 53.6667 77.4399 54.4744 75.9966 55.9122C74.5534 57.35 73.7426 59.3 73.7426 61.3333V84.3333H58.3509V30.6667C58.3509 28.6333 57.5401 26.6833 56.0968 25.2455C54.6536 23.8077 52.6961 23 50.6551 23H-10.9116C-12.9527 23 -14.9101 23.8077 -16.3534 25.2455C-17.7966 26.6833 -18.6074 28.6333 -18.6074 30.6667V153.333C-18.6074 155.367 -17.7966 157.317 -16.3534 158.754C-14.9101 160.192 -12.9527 161 -10.9116 161H127.613C129.654 161 131.612 160.192 133.055 158.754C134.498 157.317 135.309 155.367 135.309 153.333V61.3333C135.309 59.3 134.498 57.35 133.055 55.9122C131.612 54.4744 129.654 53.6667 127.613 53.6667ZM27.5676 46H42.9592V61.3333H27.5676V46ZM12.1759 122.667H-3.21576V107.333H12.1759V122.667ZM12.1759 92H-3.21576V76.6667H12.1759V92ZM12.1759 61.3333H-3.21576V46H12.1759V61.3333ZM42.9592 122.667H27.5676V107.333H42.9592V122.667ZM42.9592 92H27.5676V76.6667H42.9592V92ZM112.222 122.667H96.8301V107.333H112.222V122.667ZM112.222 92H96.8301V76.6667H112.222V92Z" fill="url(#paint0_linear_670_8832)" fill-opacity="0.76"/>
</g>
<g opacity="0.76">
<path d="M281.001 53.6667H235.001C232.967 53.6667 231.017 54.4744 229.58 55.9122C228.142 57.35 227.334 59.3 227.334 61.3333V84.3333H212.001V30.6667C212.001 28.6333 211.193 26.6833 209.755 25.2455C208.317 23.8077 206.367 23 204.334 23H143.001C140.967 23 139.017 23.8077 137.579 25.2455C136.142 26.6833 135.334 28.6333 135.334 30.6667V153.333C135.334 155.367 136.142 157.317 137.579 158.754C139.017 160.192 140.967 161 143.001 161H281.001C283.034 161 284.984 160.192 286.422 158.754C287.86 157.317 288.667 155.367 288.667 153.333V61.3333C288.667 59.3 287.86 57.35 286.422 55.9122C284.984 54.4744 283.034 53.6667 281.001 53.6667ZM181.334 46H196.667V61.3333H181.334V46ZM166.001 122.667H150.667V107.333H166.001V122.667ZM166.001 92H150.667V76.6667H166.001V92ZM166.001 61.3333H150.667V46H166.001V61.3333ZM196.667 122.667H181.334V107.333H196.667V122.667ZM196.667 92H181.334V76.6667H196.667V92ZM265.667 122.667H250.334V107.333H265.667V122.667ZM265.667 92H250.334V76.6667H265.667V92Z" fill="url(#paint1_linear_670_8832)" fill-opacity="0.76"/>
</g>
<defs>
<linearGradient id="paint0_linear_670_8832" x1="58.3509" y1="23" x2="58.3509" y2="161" gradientUnits="userSpaceOnUse">
<stop stop-color="#A8A29E" stop-opacity="0.17"/>
<stop offset="0.958333" stop-color="#FAFAF9"/>
</linearGradient>
<linearGradient id="paint1_linear_670_8832" x1="212.001" y1="23" x2="212.001" y2="161" gradientUnits="userSpaceOnUse">
<stop stop-color="#A8A29E" stop-opacity="0.17"/>
<stop offset="0.958333" stop-color="#FAFAF9"/>
</linearGradient>
</defs>
</svg>
