<svg width="271" height="193" viewBox="0 0 271 193" fill="none" xmlns="http://www.w3.org/2000/svg">
<path d="M271.463 61.9899C277.012 58.2599 283.904 57.1038 290.356 58.8326C302.694 62.1386 310.027 74.8406 306.721 87.1788C304.993 93.6308 300.538 99.0493 294.533 101.99L222.22 137.329L220.086 133.634L206.828 110.67L204.673 106.938L271.463 61.9899ZM196.536 111.612L198.69 115.344L211.948 138.308L214.103 142.04L202.346 164.185C199.945 168.728 195.235 171.591 190.097 171.639L136.034 172.258L170.264 152.495C170.947 152.89 171.709 153.216 172.53 153.435C177.539 154.778 182.67 151.815 184.012 146.806C185.354 141.798 182.392 136.667 177.383 135.324C172.374 133.982 167.243 136.945 165.901 141.954C165.681 142.774 165.589 143.569 165.583 144.386L131.331 164.113L158.891 117.631C161.502 113.205 166.336 110.557 171.471 110.75L196.528 111.641L196.536 111.612Z" fill="url(#paint0_linear_670_8831)" fill-opacity="0.76"/>
<path fill-rule="evenodd" clip-rule="evenodd" d="M6.3646 48.5308C0.327905 58.9729 3.88338 72.2421 10.9893 98.7618L31.0909 173.782C38.1968 200.302 41.7523 213.571 52.2013 219.596C62.6434 225.632 75.9126 222.077 102.432 214.971L121.187 209.946C147.707 202.84 160.976 199.284 167.001 188.835C173.038 178.393 169.482 165.124 162.376 138.604L142.275 63.5839C135.169 37.0643 131.613 23.7951 121.164 17.7703C110.722 11.7336 97.453 15.289 70.9333 22.395L52.1783 27.4204C25.6586 34.5263 12.3894 38.0818 6.3646 48.5308ZM64.0806 174.993C63.5808 173.128 63.8424 171.14 64.808 169.468C65.7735 167.796 67.3639 166.575 69.2292 166.076L97.3618 158.537C99.2271 158.038 101.215 158.299 102.887 159.265C104.559 160.23 105.78 161.821 106.279 163.686C106.779 165.551 106.518 167.539 105.552 169.211C104.587 170.884 102.996 172.104 101.131 172.604L72.9983 180.142C71.133 180.642 69.1455 180.38 67.4731 179.414C65.8007 178.449 64.5804 176.859 64.0806 174.993ZM59.1784 128.565C57.3131 129.065 55.7227 130.286 54.7572 131.958C53.7916 133.63 53.53 135.618 54.0298 137.483C54.5296 139.348 55.7499 140.939 57.4223 141.904C59.0947 142.87 61.0821 143.132 62.9475 142.632L119.213 127.556C121.078 127.056 122.668 125.835 123.634 124.163C124.599 122.491 124.861 120.503 124.361 118.638C123.861 116.773 122.641 115.182 120.969 114.217C119.296 113.251 117.309 112.989 115.444 113.489L59.1784 128.565ZM43.979 99.973C43.4792 98.1077 43.7408 96.1203 44.7064 94.4479C45.6719 92.7755 47.2623 91.5551 49.1276 91.0553L105.393 75.9791C107.258 75.4793 109.246 75.741 110.918 76.7065C112.59 77.6721 113.811 79.2624 114.31 81.1277C114.81 82.9931 114.549 84.9805 113.583 86.6529C112.617 88.3253 111.027 89.5456 109.162 90.0454L52.8966 105.122C51.0313 105.621 49.0439 105.36 47.3715 104.394C45.6991 103.429 44.4788 101.838 43.979 99.973Z" fill="url(#paint1_linear_670_8831)" fill-opacity="0.76"/>
<path opacity="0.5" d="M3.28797 61.2049C3.30297 70.0757 6.40867 81.6664 10.9893 98.7616L31.0909 173.782C35.6716 190.877 38.7748 202.458 43.1997 210.158L40.9508 210.579C31.5665 212.129 24.8695 211.742 19.0433 208.379C8.59433 202.354 5.03886 189.085 -2.06706 162.565L-12.1179 125.055C-19.2263 98.5257 -22.7793 85.2659 -16.7426 74.8238C-13.3788 68.9976 -7.77239 65.3143 1.12948 61.9642L3.28797 61.2049ZM170.078 176.161C170.06 167.281 166.954 155.69 162.376 138.604L142.275 63.5838C137.694 46.4886 134.588 34.8979 130.166 27.2081L132.415 26.7864C141.799 25.2367 148.496 25.6233 154.322 28.9871C164.771 35.0119 168.322 48.2623 175.43 74.7914L185.481 112.301C192.592 138.84 196.142 152.09 190.108 162.542C186.744 168.368 181.138 172.051 172.236 175.401L170.078 176.161Z" fill="url(#paint2_linear_670_8831)" fill-opacity="0.76"/>
<defs>
<linearGradient id="paint0_linear_670_8831" x1="240.508" y1="45.4759" x2="201.814" y2="189.884" gradientUnits="userSpaceOnUse">
<stop stop-color="#A8A29E" stop-opacity="0.17"/>
<stop offset="0.958333" stop-color="#FAFAF9"/>
</linearGradient>
<linearGradient id="paint1_linear_670_8831" x1="61.5558" y1="24.9077" x2="111.81" y2="212.458" gradientUnits="userSpaceOnUse">
<stop stop-color="#A8A29E" stop-opacity="0.17"/>
<stop offset="0.958333" stop-color="#FAFAF9"/>
</linearGradient>
<linearGradient id="paint2_linear_670_8831" x1="66.727" y1="44.2065" x2="106.639" y2="193.159" gradientUnits="userSpaceOnUse">
<stop stop-color="#A8A29E" stop-opacity="0.17"/>
<stop offset="0.958333" stop-color="#FAFAF9"/>
</linearGradient>
</defs>
</svg>
