<svg width="61" height="69" viewBox="0 0 61 69" fill="none" xmlns="http://www.w3.org/2000/svg">
<rect width="61" height="46" fill="url(#paint0_linear_351_14215)"/>
<path d="M7.72848 18C8.73514 18 9.50514 18.1833 10.0385 18.55C10.5785 18.9167 10.8485 19.49 10.8485 20.27C10.8485 20.6767 10.7751 21.0267 10.6285 21.32C10.4885 21.6067 10.2818 21.8433 10.0085 22.03C9.73514 22.21 9.40181 22.3433 9.00848 22.43C8.61514 22.5167 8.16514 22.56 7.65848 22.56H7.02848V25H5.76848V18.17C6.06181 18.1033 6.38514 18.06 6.73848 18.04C7.09848 18.0133 7.42848 18 7.72848 18ZM7.81848 19.09C7.49848 19.09 7.23514 19.1 7.02848 19.12V21.48H7.63848C8.24514 21.48 8.71181 21.3967 9.03848 21.23C9.36514 21.0567 9.52848 20.7333 9.52848 20.26C9.52848 20.0333 9.48514 19.8433 9.39848 19.69C9.31181 19.5367 9.19181 19.4167 9.03848 19.33C8.88514 19.2433 8.70181 19.1833 8.48848 19.15C8.28181 19.11 8.05848 19.09 7.81848 19.09ZM11.3657 22.41C11.3657 21.95 11.4324 21.5467 11.5657 21.2C11.7057 20.8533 11.8891 20.5667 12.1157 20.34C12.3424 20.1067 12.6024 19.9333 12.8957 19.82C13.1891 19.7 13.4891 19.64 13.7957 19.64C14.5157 19.64 15.0757 19.8633 15.4757 20.31C15.8824 20.7567 16.0857 21.4233 16.0857 22.31C16.0857 22.3767 16.0824 22.4533 16.0757 22.54C16.0757 22.62 16.0724 22.6933 16.0657 22.76H12.6157C12.6491 23.18 12.7957 23.5067 13.0557 23.74C13.3224 23.9667 13.7057 24.08 14.2057 24.08C14.4991 24.08 14.7657 24.0533 15.0057 24C15.2524 23.9467 15.4457 23.89 15.5857 23.83L15.7457 24.82C15.6791 24.8533 15.5857 24.89 15.4657 24.93C15.3524 24.9633 15.2191 24.9933 15.0657 25.02C14.9191 25.0533 14.7591 25.08 14.5857 25.1C14.4124 25.12 14.2357 25.13 14.0557 25.13C13.5957 25.13 13.1957 25.0633 12.8557 24.93C12.5157 24.79 12.2357 24.6 12.0157 24.36C11.7957 24.1133 11.6324 23.8267 11.5257 23.5C11.4191 23.1667 11.3657 22.8033 11.3657 22.41ZM14.8757 21.87C14.8757 21.7033 14.8524 21.5467 14.8057 21.4C14.7591 21.2467 14.6891 21.1167 14.5957 21.01C14.5091 20.8967 14.3991 20.81 14.2657 20.75C14.1391 20.6833 13.9857 20.65 13.8057 20.65C13.6191 20.65 13.4557 20.6867 13.3157 20.76C13.1757 20.8267 13.0557 20.9167 12.9557 21.03C12.8624 21.1433 12.7891 21.2733 12.7357 21.42C12.6824 21.5667 12.6457 21.7167 12.6257 21.87H14.8757ZM17.3686 19.94C17.602 19.8733 17.9053 19.81 18.2786 19.75C18.652 19.69 19.0653 19.66 19.5186 19.66C19.9453 19.66 20.302 19.72 20.5886 19.84C20.8753 19.9533 21.102 20.1167 21.2686 20.33C21.442 20.5367 21.562 20.79 21.6286 21.09C21.702 21.3833 21.7386 21.7067 21.7386 22.06V25H20.5286V22.25C20.5286 21.97 20.5086 21.7333 20.4686 21.54C20.4353 21.34 20.3753 21.18 20.2886 21.06C20.2086 20.9333 20.0953 20.8433 19.9486 20.79C19.8086 20.73 19.6353 20.7 19.4286 20.7C19.2753 20.7 19.1153 20.71 18.9486 20.73C18.782 20.75 18.6586 20.7667 18.5786 20.78V25H17.3686V19.94ZM25.0582 24.15C25.4316 24.15 25.7149 24.13 25.9082 24.09V22.75C25.8416 22.73 25.7449 22.71 25.6182 22.69C25.4916 22.67 25.3516 22.66 25.1982 22.66C25.0649 22.66 24.9282 22.67 24.7882 22.69C24.6549 22.71 24.5316 22.7467 24.4182 22.8C24.3116 22.8533 24.2249 22.93 24.1582 23.03C24.0916 23.1233 24.0582 23.2433 24.0582 23.39C24.0582 23.6767 24.1482 23.8767 24.3282 23.99C24.5082 24.0967 24.7516 24.15 25.0582 24.15ZM24.9582 19.64C25.3582 19.64 25.6949 19.69 25.9682 19.79C26.2416 19.89 26.4582 20.03 26.6182 20.21C26.7849 20.39 26.9016 20.61 26.9682 20.87C27.0416 21.1233 27.0782 21.4033 27.0782 21.71V24.88C26.8916 24.92 26.6082 24.9667 26.2282 25.02C25.8549 25.08 25.4316 25.11 24.9582 25.11C24.6449 25.11 24.3582 25.08 24.0982 25.02C23.8382 24.96 23.6149 24.8633 23.4282 24.73C23.2482 24.5967 23.1049 24.4233 22.9982 24.21C22.8982 23.9967 22.8482 23.7333 22.8482 23.42C22.8482 23.12 22.9049 22.8667 23.0182 22.66C23.1382 22.4533 23.2982 22.2867 23.4982 22.16C23.6982 22.0267 23.9282 21.9333 24.1882 21.88C24.4549 21.82 24.7316 21.79 25.0182 21.79C25.1516 21.79 25.2916 21.8 25.4382 21.82C25.5849 21.8333 25.7416 21.86 25.9082 21.9V21.7C25.9082 21.56 25.8916 21.4267 25.8582 21.3C25.8249 21.1733 25.7649 21.0633 25.6782 20.97C25.5982 20.87 25.4882 20.7933 25.3482 20.74C25.2149 20.6867 25.0449 20.66 24.8382 20.66C24.5582 20.66 24.3016 20.68 24.0682 20.72C23.8349 20.76 23.6449 20.8067 23.4982 20.86L23.3482 19.88C23.5016 19.8267 23.7249 19.7733 24.0182 19.72C24.3116 19.6667 24.6249 19.64 24.9582 19.64ZM31.5824 21.71C31.429 22.2967 31.2624 22.87 31.0824 23.43C30.909 23.9833 30.7357 24.5067 30.5624 25H29.5724C29.439 24.6933 29.299 24.3433 29.1524 23.95C29.0057 23.5567 28.859 23.1367 28.7124 22.69C28.5657 22.2433 28.419 21.7733 28.2724 21.28C28.1257 20.7867 27.9824 20.2833 27.8424 19.77H29.1224C29.1824 20.05 29.2524 20.3533 29.3324 20.68C29.4124 21 29.4957 21.33 29.5824 21.67C29.669 22.0033 29.759 22.33 29.8524 22.65C29.9457 22.97 30.039 23.2633 30.1324 23.53C30.2324 23.2233 30.329 22.9067 30.4224 22.58C30.5224 22.2533 30.6157 21.9267 30.7024 21.6C30.789 21.2733 30.869 20.9567 30.9424 20.65C31.0224 20.3367 31.0924 20.0433 31.1524 19.77H32.0824C32.1424 20.0433 32.209 20.3367 32.2824 20.65C32.3557 20.9567 32.4324 21.2733 32.5124 21.6C32.599 21.9267 32.689 22.2533 32.7824 22.58C32.8824 22.9067 32.9824 23.2233 33.0824 23.53C33.169 23.2633 33.259 22.97 33.3524 22.65C33.4457 22.33 33.5357 22.0033 33.6224 21.67C33.7157 21.33 33.8024 21 33.8824 20.68C33.9624 20.3533 34.0324 20.05 34.0924 19.77H35.3424C35.2024 20.2833 35.059 20.7867 34.9124 21.28C34.7657 21.7733 34.619 22.2433 34.4724 22.69C34.3257 23.1367 34.179 23.5567 34.0324 23.95C33.8857 24.3433 33.7424 24.6933 33.6024 25H32.6224C32.449 24.5067 32.269 23.9833 32.0824 23.43C31.9024 22.87 31.7357 22.2967 31.5824 21.71ZM38.1051 24.15C38.4785 24.15 38.7618 24.13 38.9551 24.09V22.75C38.8885 22.73 38.7918 22.71 38.6651 22.69C38.5385 22.67 38.3985 22.66 38.2451 22.66C38.1118 22.66 37.9751 22.67 37.8351 22.69C37.7018 22.71 37.5785 22.7467 37.4651 22.8C37.3585 22.8533 37.2718 22.93 37.2051 23.03C37.1385 23.1233 37.1051 23.2433 37.1051 23.39C37.1051 23.6767 37.1951 23.8767 37.3751 23.99C37.5551 24.0967 37.7985 24.15 38.1051 24.15ZM38.0051 19.64C38.4051 19.64 38.7418 19.69 39.0151 19.79C39.2885 19.89 39.5051 20.03 39.6651 20.21C39.8318 20.39 39.9485 20.61 40.0151 20.87C40.0885 21.1233 40.1251 21.4033 40.1251 21.71V24.88C39.9385 24.92 39.6551 24.9667 39.2751 25.02C38.9018 25.08 38.4785 25.11 38.0051 25.11C37.6918 25.11 37.4051 25.08 37.1451 25.02C36.8851 24.96 36.6618 24.8633 36.4751 24.73C36.2951 24.5967 36.1518 24.4233 36.0451 24.21C35.9451 23.9967 35.8951 23.7333 35.8951 23.42C35.8951 23.12 35.9518 22.8667 36.0651 22.66C36.1851 22.4533 36.3451 22.2867 36.5451 22.16C36.7451 22.0267 36.9751 21.9333 37.2351 21.88C37.5018 21.82 37.7785 21.79 38.0651 21.79C38.1985 21.79 38.3385 21.8 38.4851 21.82C38.6318 21.8333 38.7885 21.86 38.9551 21.9V21.7C38.9551 21.56 38.9385 21.4267 38.9051 21.3C38.8718 21.1733 38.8118 21.0633 38.7251 20.97C38.6451 20.87 38.5351 20.7933 38.3951 20.74C38.2618 20.6867 38.0918 20.66 37.8851 20.66C37.6051 20.66 37.3485 20.68 37.1151 20.72C36.8818 20.76 36.6918 20.8067 36.5451 20.86L36.3951 19.88C36.5485 19.8267 36.7718 19.7733 37.0651 19.72C37.3585 19.6667 37.6718 19.64 38.0051 19.64ZM44.5869 20.86C44.4869 20.8267 44.3469 20.7933 44.1669 20.76C43.9936 20.72 43.7902 20.7 43.5569 20.7C43.4236 20.7 43.2802 20.7133 43.1269 20.74C42.9802 20.7667 42.8769 20.79 42.8169 20.81V25H41.6069V20.02C41.8402 19.9333 42.1302 19.8533 42.4769 19.78C42.8302 19.7 43.2202 19.66 43.6469 19.66C43.7269 19.66 43.8202 19.6667 43.9269 19.68C44.0336 19.6867 44.1402 19.7 44.2469 19.72C44.3536 19.7333 44.4569 19.7533 44.5569 19.78C44.6569 19.8 44.7369 19.82 44.7969 19.84L44.5869 20.86ZM47.4801 24.15C47.8535 24.15 48.1368 24.13 48.3301 24.09V22.75C48.2635 22.73 48.1668 22.71 48.0401 22.69C47.9135 22.67 47.7735 22.66 47.6201 22.66C47.4868 22.66 47.3501 22.67 47.2101 22.69C47.0768 22.71 46.9535 22.7467 46.8401 22.8C46.7335 22.8533 46.6468 22.93 46.5801 23.03C46.5135 23.1233 46.4801 23.2433 46.4801 23.39C46.4801 23.6767 46.5701 23.8767 46.7501 23.99C46.9301 24.0967 47.1735 24.15 47.4801 24.15ZM47.3801 19.64C47.7801 19.64 48.1168 19.69 48.3901 19.79C48.6635 19.89 48.8801 20.03 49.0401 20.21C49.2068 20.39 49.3235 20.61 49.3901 20.87C49.4635 21.1233 49.5001 21.4033 49.5001 21.71V24.88C49.3135 24.92 49.0301 24.9667 48.6501 25.02C48.2768 25.08 47.8535 25.11 47.3801 25.11C47.0668 25.11 46.7801 25.08 46.5201 25.02C46.2601 24.96 46.0368 24.8633 45.8501 24.73C45.6701 24.5967 45.5268 24.4233 45.4201 24.21C45.3201 23.9967 45.2701 23.7333 45.2701 23.42C45.2701 23.12 45.3268 22.8667 45.4401 22.66C45.5601 22.4533 45.7201 22.2867 45.9201 22.16C46.1201 22.0267 46.3501 21.9333 46.6101 21.88C46.8768 21.82 47.1535 21.79 47.4401 21.79C47.5735 21.79 47.7135 21.8 47.8601 21.82C48.0068 21.8333 48.1635 21.86 48.3301 21.9V21.7C48.3301 21.56 48.3135 21.4267 48.2801 21.3C48.2468 21.1733 48.1868 21.0633 48.1001 20.97C48.0201 20.87 47.9101 20.7933 47.7701 20.74C47.6368 20.6867 47.4668 20.66 47.2601 20.66C46.9801 20.66 46.7235 20.68 46.4901 20.72C46.2568 20.76 46.0668 20.8067 45.9201 20.86L45.7701 19.88C45.9235 19.8267 46.1468 19.7733 46.4401 19.72C46.7335 19.6667 47.0468 19.64 47.3801 19.64ZM50.9819 19.94C51.2152 19.8733 51.5186 19.81 51.8919 19.75C52.2652 19.69 52.6786 19.66 53.1319 19.66C53.5586 19.66 53.9152 19.72 54.2019 19.84C54.4886 19.9533 54.7152 20.1167 54.8819 20.33C55.0552 20.5367 55.1752 20.79 55.2419 21.09C55.3152 21.3833 55.3519 21.7067 55.3519 22.06V25H54.1419V22.25C54.1419 21.97 54.1219 21.7333 54.0819 21.54C54.0486 21.34 53.9886 21.18 53.9019 21.06C53.8219 20.9333 53.7086 20.8433 53.5619 20.79C53.4219 20.73 53.2486 20.7 53.0419 20.7C52.8886 20.7 52.7286 20.71 52.5619 20.73C52.3952 20.75 52.2719 20.7667 52.1919 20.78V25H50.9819V19.94ZM18.8797 29.07V30.16H16.7497V36H15.4797V30.16H13.3497V29.07H18.8797ZM18.9439 33.41C18.9439 32.95 19.0105 32.5467 19.1439 32.2C19.2839 31.8533 19.4672 31.5667 19.6939 31.34C19.9205 31.1067 20.1805 30.9333 20.4739 30.82C20.7672 30.7 21.0672 30.64 21.3739 30.64C22.0939 30.64 22.6539 30.8633 23.0539 31.31C23.4605 31.7567 23.6639 32.4233 23.6639 33.31C23.6639 33.3767 23.6605 33.4533 23.6539 33.54C23.6539 33.62 23.6505 33.6933 23.6439 33.76H20.1939C20.2272 34.18 20.3739 34.5067 20.6339 34.74C20.9005 34.9667 21.2839 35.08 21.7839 35.08C22.0772 35.08 22.3439 35.0533 22.5839 35C22.8305 34.9467 23.0239 34.89 23.1639 34.83L23.3239 35.82C23.2572 35.8533 23.1639 35.89 23.0439 35.93C22.9305 35.9633 22.7972 35.9933 22.6439 36.02C22.4972 36.0533 22.3372 36.08 22.1639 36.1C21.9905 36.12 21.8139 36.13 21.6339 36.13C21.1739 36.13 20.7739 36.0633 20.4339 35.93C20.0939 35.79 19.8139 35.6 19.5939 35.36C19.3739 35.1133 19.2105 34.8267 19.1039 34.5C18.9972 34.1667 18.9439 33.8033 18.9439 33.41ZM22.4539 32.87C22.4539 32.7033 22.4305 32.5467 22.3839 32.4C22.3372 32.2467 22.2672 32.1167 22.1739 32.01C22.0872 31.8967 21.9772 31.81 21.8439 31.75C21.7172 31.6833 21.5639 31.65 21.3839 31.65C21.1972 31.65 21.0339 31.6867 20.8939 31.76C20.7539 31.8267 20.6339 31.9167 20.5339 32.03C20.4405 32.1433 20.3672 32.2733 20.3139 32.42C20.2605 32.5667 20.2239 32.7167 20.2039 32.87H22.4539ZM27.9268 31.86C27.8268 31.8267 27.6868 31.7933 27.5068 31.76C27.3334 31.72 27.1301 31.7 26.8968 31.7C26.7634 31.7 26.6201 31.7133 26.4668 31.74C26.3201 31.7667 26.2168 31.79 26.1568 31.81V36H24.9468V31.02C25.1801 30.9333 25.4701 30.8533 25.8168 30.78C26.1701 30.7 26.5601 30.66 26.9868 30.66C27.0668 30.66 27.1601 30.6667 27.2668 30.68C27.3734 30.6867 27.4801 30.7 27.5868 30.72C27.6934 30.7333 27.7968 30.7533 27.8968 30.78C27.9968 30.8 28.0768 30.82 28.1368 30.84L27.9268 31.86ZM32.45 33.37C32.45 32.8567 32.3466 32.45 32.14 32.15C31.94 31.85 31.62 31.7 31.18 31.7C30.98 31.7 30.79 31.73 30.61 31.79C30.4366 31.85 30.2966 31.9167 30.19 31.99V35C30.2766 35.02 30.3866 35.04 30.52 35.06C30.66 35.0733 30.8266 35.08 31.02 35.08C31.4666 35.08 31.8166 34.93 32.07 34.63C32.3233 34.3233 32.45 33.9033 32.45 33.37ZM33.69 33.39C33.69 33.81 33.6266 34.19 33.5 34.53C33.38 34.8633 33.2033 35.15 32.97 35.39C32.7433 35.63 32.4666 35.8133 32.14 35.94C31.8133 36.0667 31.4433 36.13 31.03 36.13C30.63 36.13 30.2466 36.1 29.88 36.04C29.52 35.98 29.22 35.9133 28.98 35.84V28.44L30.19 28.24V30.95C30.33 30.8767 30.5 30.81 30.7 30.75C30.9066 30.69 31.1333 30.66 31.38 30.66C31.7466 30.66 32.0733 30.7267 32.36 30.86C32.6533 30.9867 32.8966 31.17 33.09 31.41C33.2833 31.65 33.43 31.94 33.53 32.28C33.6366 32.6133 33.69 32.9833 33.69 33.39ZM36.777 35.15C37.1503 35.15 37.4337 35.13 37.627 35.09V33.75C37.5603 33.73 37.4637 33.71 37.337 33.69C37.2103 33.67 37.0703 33.66 36.917 33.66C36.7837 33.66 36.647 33.67 36.507 33.69C36.3737 33.71 36.2503 33.7467 36.137 33.8C36.0303 33.8533 35.9437 33.93 35.877 34.03C35.8103 34.1233 35.777 34.2433 35.777 34.39C35.777 34.6767 35.867 34.8767 36.047 34.99C36.227 35.0967 36.4703 35.15 36.777 35.15ZM36.677 30.64C37.077 30.64 37.4137 30.69 37.687 30.79C37.9603 30.89 38.177 31.03 38.337 31.21C38.5037 31.39 38.6203 31.61 38.687 31.87C38.7603 32.1233 38.797 32.4033 38.797 32.71V35.88C38.6103 35.92 38.327 35.9667 37.947 36.02C37.5737 36.08 37.1503 36.11 36.677 36.11C36.3637 36.11 36.077 36.08 35.817 36.02C35.557 35.96 35.3337 35.8633 35.147 35.73C34.967 35.5967 34.8237 35.4233 34.717 35.21C34.617 34.9967 34.567 34.7333 34.567 34.42C34.567 34.12 34.6237 33.8667 34.737 33.66C34.857 33.4533 35.017 33.2867 35.217 33.16C35.417 33.0267 35.647 32.9333 35.907 32.88C36.1737 32.82 36.4503 32.79 36.737 32.79C36.8703 32.79 37.0103 32.8 37.157 32.82C37.3037 32.8333 37.4603 32.86 37.627 32.9V32.7C37.627 32.56 37.6103 32.4267 37.577 32.3C37.5437 32.1733 37.4837 32.0633 37.397 31.97C37.317 31.87 37.207 31.7933 37.067 31.74C36.9337 31.6867 36.7637 31.66 36.557 31.66C36.277 31.66 36.0203 31.68 35.787 31.72C35.5537 31.76 35.3637 31.8067 35.217 31.86L35.067 30.88C35.2203 30.8267 35.4437 30.7733 35.737 30.72C36.0303 30.6667 36.3437 30.64 36.677 30.64ZM41.4988 36H40.2888V30.77H41.4988V36ZM41.6288 29.24C41.6288 29.4667 41.5555 29.6467 41.4088 29.78C41.2621 29.9133 41.0888 29.98 40.8888 29.98C40.6821 29.98 40.5055 29.9133 40.3588 29.78C40.2121 29.6467 40.1388 29.4667 40.1388 29.24C40.1388 29.0067 40.2121 28.8233 40.3588 28.69C40.5055 28.5567 40.6821 28.49 40.8888 28.49C41.0888 28.49 41.2621 28.5567 41.4088 28.69C41.5555 28.8233 41.6288 29.0067 41.6288 29.24ZM44.2525 32.81C44.4058 32.65 44.5691 32.48 44.7425 32.3C44.9158 32.1133 45.0858 31.93 45.2525 31.75C45.4191 31.5633 45.5758 31.3867 45.7225 31.22C45.8758 31.0467 46.0058 30.8967 46.1125 30.77H47.5425C47.2091 31.1433 46.8558 31.53 46.4825 31.93C46.1158 32.33 45.7458 32.72 45.3725 33.1C45.5725 33.2667 45.7825 33.47 46.0025 33.71C46.2225 33.9433 46.4358 34.1933 46.6425 34.46C46.8491 34.7267 47.0425 34.9933 47.2225 35.26C47.4025 35.5267 47.5525 35.7733 47.6725 36H46.2725C46.1525 35.7933 46.0125 35.5767 45.8525 35.35C45.6991 35.1233 45.5325 34.9033 45.3525 34.69C45.1725 34.4767 44.9891 34.2767 44.8025 34.09C44.6158 33.8967 44.4325 33.7333 44.2525 33.6V36H43.0425V28.44L44.2525 28.24V32.81Z" fill="white"/>
<path d="M0 64.8388V45H30L3.24939 66.4005C1.93986 67.4481 0 66.5158 0 64.8388Z" fill="url(#paint1_linear_351_14215)"/>
<path d="M61 64.8388V45H31L57.7506 66.4005C59.0601 67.4481 61 66.5158 61 64.8388Z" fill="#EA580C"/>
<defs>
<linearGradient id="paint0_linear_351_14215" x1="-1.35556" y1="-1.63421" x2="41.9661" y2="9.6787" gradientUnits="userSpaceOnUse">
<stop stop-color="#F97316"/>
<stop offset="1" stop-color="#EA580C"/>
</linearGradient>
<linearGradient id="paint1_linear_351_14215" x1="-0.666667" y1="44.1474" x2="20.7917" y2="49.4295" gradientUnits="userSpaceOnUse">
<stop stop-color="#F97316"/>
<stop offset="1" stop-color="#EA580C"/>
</linearGradient>
</defs>
</svg>
