<svg width="16" height="16" viewBox="0 0 16 16" fill="none" xmlns="http://www.w3.org/2000/svg">
<path d="M6.30325 5.9998C6.70645 5.5118 7.31685 5.1998 8.00005 5.1998C8.68325 5.1998 9.29365 5.5118 9.69685 5.9998C9.96231 6.32165 10.1308 6.71235 10.1826 7.12632C10.2344 7.54028 10.1675 7.96045 9.98958 8.33782C9.81166 8.71518 9.53012 9.03417 9.17778 9.25759C8.82545 9.481 8.41685 9.59963 7.99965 9.59963C7.58245 9.59963 7.17385 9.481 6.82152 9.25759C6.46918 9.03417 6.18764 8.71518 6.00972 8.33782C5.83181 7.96045 5.76486 7.54028 5.81669 7.12632C5.86852 6.71235 6.03699 6.32165 6.30245 5.9998H6.30325ZM11 7.3998C11 6.8942 10.8752 6.4174 10.6544 5.9998H14C14.3183 5.9998 14.6235 6.12623 14.8486 6.35128C15.0736 6.57632 15.2 6.88154 15.2 7.1998V7.5998C15.2 8.8694 14.2352 10.1694 12.548 10.627C12.3747 10.3155 12.1212 10.0561 11.8139 9.87549C11.5065 9.69489 11.1565 9.59971 10.8 9.5998H10.04C10.3433 9.31924 10.5851 8.97893 10.7503 8.60029C10.9156 8.22166 11.0006 7.81292 11 7.3998ZM10.8 10.3998C10.9578 10.3994 11.114 10.4301 11.2598 10.4903C11.4055 10.5504 11.538 10.6388 11.6495 10.7503C11.761 10.8618 11.8494 10.9943 11.9096 11.1401C11.9697 11.2859 12.0005 11.4421 12 11.5998V11.9998C12 13.5766 10.512 15.1998 8.00005 15.1998C5.48805 15.1998 4.00005 13.5766 4.00005 11.9998V11.5998C3.99963 11.4421 4.03038 11.2859 4.09053 11.1401C4.15069 10.9943 4.23906 10.8618 4.35058 10.7503C4.46209 10.6388 4.59455 10.5504 4.74033 10.4903C4.88611 10.4301 5.04234 10.3994 5.20005 10.3998H10.8ZM0.800049 7.5998C0.800049 8.8694 1.76485 10.1694 3.45205 10.627C3.62543 10.3155 3.87891 10.0561 4.18624 9.87549C4.49357 9.69489 4.84358 9.59971 5.20005 9.5998H5.96005C5.65682 9.31924 5.41498 8.97893 5.24976 8.60029C5.08454 8.22166 4.99952 7.81292 5.00005 7.3998C5.00005 6.8942 5.12485 6.4174 5.34645 5.9998H2.00005C1.68179 5.9998 1.37656 6.12623 1.15152 6.35128C0.926477 6.57632 0.800049 6.88154 0.800049 7.1998V7.5998ZM7.00005 2.9998C7.00005 2.41633 6.76826 1.85675 6.35568 1.44417C5.9431 1.03159 5.38353 0.799805 4.80005 0.799805C4.21657 0.799805 3.65699 1.03159 3.24441 1.44417C2.83183 1.85675 2.60005 2.41633 2.60005 2.9998C2.60005 3.58328 2.83183 4.14286 3.24441 4.55544C3.65699 4.96802 4.21657 5.1998 4.80005 5.1998C5.38353 5.1998 5.9431 4.96802 6.35568 4.55544C6.76826 4.14286 7.00005 3.58328 7.00005 2.9998ZM13.4 2.9998C13.4 2.41633 13.1683 1.85675 12.7557 1.44417C12.3431 1.03159 11.7835 0.799805 11.2 0.799805C10.6166 0.799805 10.057 1.03159 9.64441 1.44417C9.23183 1.85675 9.00005 2.41633 9.00005 2.9998C9.00005 3.58328 9.23183 4.14286 9.64441 4.55544C10.057 4.96802 10.6166 5.1998 11.2 5.1998C11.7835 5.1998 12.3431 4.96802 12.7557 4.55544C13.1683 4.14286 13.4 3.58328 13.4 2.9998Z" fill="#64748B"/>
</svg>
