<svg width="128" height="128" viewBox="0 0 128 128" fill="none" xmlns="http://www.w3.org/2000/svg">
<g clip-path="url(#clip0_509_8838)">
<path fill-rule="evenodd" clip-rule="evenodd" d="M64 0C87.9726 0 107.941 19.968 107.941 43.9314C107.941 51.7577 105.253 59.4743 101.495 66.4594C97.7189 73.4811 92.7269 80.0274 87.7715 85.6046C83.4512 90.4565 78.805 95.008 73.8652 99.2274C72.252 100.61 70.5868 101.93 68.8732 103.186C68.2952 103.606 67.7004 104.003 67.0903 104.375C66.5842 104.676 66.0517 104.93 65.4995 105.134C64.2766 105.529 62.9479 105.43 61.7966 104.859C61.4896 104.714 61.1905 104.552 60.9006 104.375C60.287 103.994 59.6892 103.588 59.1086 103.159C57.3977 101.897 55.7355 100.57 54.1258 99.1817C49.1915 94.9397 44.5486 90.3702 40.2286 85.504C35.2732 79.9086 30.2812 73.344 26.5143 66.3497C22.7566 59.3829 20.0595 51.6937 20.0595 43.9314C20.0595 19.968 40.0275 0 64 0ZM64 57.0514C60.5204 57.0514 57.1833 55.6691 54.7228 53.2087C52.2623 50.7482 50.88 47.4111 50.88 43.9314C50.88 40.4518 52.2623 37.1147 54.7228 34.6542C57.1833 32.1937 60.5204 30.8114 64 30.8114C67.4797 30.8114 70.8168 32.1937 73.2773 34.6542C75.7378 37.1147 77.12 40.4518 77.12 43.9314C77.12 47.4111 75.7378 50.7482 73.2773 53.2087C70.8168 55.6691 67.4797 57.0514 64 57.0514ZM92.3429 92.8549C94.0252 90.9623 95.7075 88.9783 97.3715 86.912H109.65C111.479 86.912 113.125 88.0091 113.856 89.6823L127.543 121.637C127.841 122.332 127.962 123.091 127.895 123.845C127.827 124.599 127.574 125.324 127.157 125.956C126.74 126.587 126.173 127.106 125.506 127.464C124.839 127.823 124.094 128.01 123.337 128.009H4.6629C3.90603 128.01 3.16083 127.823 2.49419 127.464C1.82755 127.106 1.26033 126.587 0.843424 125.956C0.426521 125.324 0.172986 124.599 0.105573 123.845C0.0381594 123.091 0.158978 122.332 0.457185 121.637L14.1532 89.6823C14.5059 88.8594 15.0925 88.1583 15.8402 87.6658C16.5878 87.1733 17.4636 86.9112 18.3589 86.912H30.7475C32.3658 88.9234 34.0115 90.8709 35.6572 92.7269C41.7098 99.5474 47.8172 105.307 52.5715 109.376C54.9486 111.415 57.024 113.051 58.6149 114.203C59.4012 114.779 60.1235 115.264 60.736 115.639C61.2682 115.997 61.8505 116.274 62.464 116.462C63.7127 116.872 65.0728 116.774 66.2492 116.187C66.6149 116.023 66.9532 115.822 67.2549 115.648C67.9783 115.205 68.6829 114.732 69.3669 114.231C70.9578 113.079 73.024 111.451 75.4103 109.431C80.1646 105.39 86.2903 99.6571 92.3338 92.8549H92.3429Z" fill="#065F46"/>
</g>
<defs>
<clipPath id="clip0_509_8838">
<rect width="128" height="128" fill="white"/>
</clipPath>
</defs>
</svg>
