<svg width="102" height="128" viewBox="0 0 102 128" fill="none" xmlns="http://www.w3.org/2000/svg">
<path d="M85.5966 55.4331C90.5277 56.416 94.8961 59.2478 97.8064 63.3481C100.717 67.4483 101.948 72.5065 101.249 77.4857L95.2423 119.534C94.9075 121.899 93.724 124.062 91.9123 125.62C90.1007 127.178 87.7845 128.024 85.3955 128H21.5966C19.6241 128.004 17.6959 127.415 16.0623 126.31C14.4287 125.205 13.1651 123.634 12.4355 121.801L1.9029 95.6068C0.0989732 90.9777 0.111305 85.8379 1.93742 81.2175C3.76354 76.5971 7.2685 72.8376 11.7498 70.6926L25.0343 64V14.7657C25.0343 12.8267 25.4163 10.9066 26.1583 9.11512C26.9003 7.32366 27.988 5.6959 29.3591 4.32478C30.7302 2.95365 32.358 1.86602 34.1494 1.12397C35.9409 0.381926 37.861 0 39.8 0C41.7391 0 43.6592 0.381926 45.4506 1.12397C47.2421 1.86602 48.8698 2.95365 50.241 4.32478C51.6121 5.6959 52.6997 7.32366 53.4418 9.11512C54.1838 10.9066 54.5657 12.8267 54.5657 14.7657V49.2343L85.5875 55.4331H85.5966Z" fill="#065F46"/>
</svg>
