<svg width="128" height="128" viewBox="0 0 128 128" fill="none" xmlns="http://www.w3.org/2000/svg">
<g clip-path="url(#clip0_509_8832)">
<path fill-rule="evenodd" clip-rule="evenodd" d="M1.12451 51.0446V66.6149C1.12451 75.4651 15.2959 82.9074 34.2857 84.5531V61.3851L34.3131 60.288C23.7714 59.5383 14.1714 57.2983 6.6468 53.9429C4.74397 53.0999 2.89916 52.1317 1.12451 51.0446ZM83.4102 18.2857V31.7257C72.1097 32.1006 61.4948 34.2857 53.1199 38.016C48.5302 40.0549 44.1051 42.7886 40.6674 46.3909C39.8902 47.2137 39.1314 48.1097 38.4365 49.0697C27.5839 48.6674 18.1119 46.5371 11.3097 43.5017C7.50623 41.8103 4.78165 39.936 3.09023 38.1531C2.17859 37.2742 1.50262 36.18 1.12451 34.9714V18.2857C1.12451 8.18286 19.5382 0 42.2674 0C64.9874 0 83.4102 8.18286 83.4102 18.2857ZM42.2674 26.7977C58.1302 26.7977 70.9942 23.104 70.9942 18.5417C70.9942 13.9703 58.1302 10.2766 42.2582 10.2766C26.3954 10.2766 13.5314 13.9794 13.5314 18.5417C13.5314 23.104 26.4045 26.7977 42.2674 26.7977ZM45.7142 109.714V94.144C47.4331 95.2046 49.2891 96.1737 51.2457 97.0423C60.6171 101.23 73.1885 103.671 86.8571 103.671C100.517 103.671 113.097 101.23 122.469 97.0423C124.425 96.1737 126.281 95.2137 128 94.144V109.714C128 119.771 109.714 128 86.8571 128C63.9999 128 45.7142 119.771 45.7142 109.714ZM47.6891 81.2526C46.7754 80.3772 46.0963 79.2863 45.7142 78.08V61.3851C45.7142 51.2914 64.1371 43.0994 86.8571 43.0994C109.577 43.0994 128 51.2914 128 61.3851V78.08C127.62 79.2897 126.94 80.384 126.025 81.2617C124.334 83.0446 121.618 84.9189 117.815 86.6194C110.226 90.0023 99.3005 92.2514 86.8571 92.2514C74.4137 92.2514 63.4971 90.0023 55.8994 86.6194C52.0959 84.9189 49.3805 83.0446 47.6891 81.2526ZM115.584 61.6411C115.584 66.2126 102.72 69.9063 86.8571 69.9063C70.9851 69.9063 58.1302 66.2034 58.1302 61.6411C58.1302 57.0789 70.9851 53.376 86.8571 53.376C102.72 53.376 115.584 57.0789 115.584 61.6411Z" fill="#065F46"/>
</g>
<defs>
<clipPath id="clip0_509_8832">
<rect width="128" height="128" fill="white"/>
</clipPath>
</defs>
</svg>
