<svg width="256" height="256" viewBox="0 0 256 256" fill="none" xmlns="http://www.w3.org/2000/svg">
<path d="M136.37 187.53C137.489 188.645 138.376 189.97 138.982 191.429C139.588 192.887 139.899 194.451 139.899 196.03C139.899 197.61 139.588 199.174 138.982 200.632C138.376 202.091 137.489 203.416 136.37 204.53L130.43 210.47C119.174 221.726 103.908 228.05 87.99 228.05C72.0719 228.05 56.8058 221.726 45.55 210.47C34.2942 199.215 27.9708 183.949 27.9708 168.03C27.9708 152.112 34.2942 136.846 45.55 125.59L69.67 101.48C80.4848 90.6389 95.0358 84.3427 110.342 83.8816C125.649 83.4205 140.552 88.8295 152 99.0004C153.182 100.051 154.145 101.324 154.835 102.747C155.525 104.17 155.928 105.715 156.021 107.293C156.114 108.872 155.895 110.453 155.376 111.947C154.858 113.441 154.051 114.819 153 116C151.949 117.182 150.676 118.146 149.253 118.836C147.831 119.526 146.286 119.928 144.707 120.021C143.128 120.114 141.547 119.895 140.053 119.377C138.559 118.859 137.182 118.051 136 117C129.135 110.904 120.2 107.66 111.023 107.933C101.846 108.207 93.1199 111.976 86.63 118.47L62.53 142.55C55.7776 149.303 51.9841 158.461 51.9841 168.01C51.9841 177.56 55.7776 186.718 62.53 193.47C69.2824 200.223 78.4406 204.016 87.99 204.016C97.5393 204.016 106.698 200.223 113.45 193.47L119.39 187.53C120.504 186.415 121.828 185.53 123.285 184.926C124.741 184.322 126.303 184.011 127.88 184.011C129.457 184.011 131.018 184.322 132.475 184.926C133.932 185.53 135.256 186.415 136.37 187.53ZM210.45 45.5304C199.185 34.292 183.922 27.9805 168.01 27.9805C152.098 27.9805 136.835 34.292 125.57 45.5304L119.63 51.4704C117.376 53.7248 116.109 56.7823 116.109 59.9704C116.109 63.1586 117.376 66.2161 119.63 68.4704C121.884 70.7248 124.942 71.9912 128.13 71.9912C131.318 71.9912 134.376 70.7248 136.63 68.4704L142.57 62.5304C149.322 55.778 158.481 51.9846 168.03 51.9846C177.579 51.9846 186.738 55.778 193.49 62.5304C200.242 69.2828 204.036 78.4411 204.036 87.9904C204.036 97.5398 200.242 106.698 193.49 113.45L169.38 137.57C162.884 144.062 154.153 147.826 144.974 148.092C135.794 148.358 126.86 145.105 120 139C118.818 137.95 117.441 137.142 115.947 136.624C114.453 136.106 112.871 135.887 111.293 135.98C109.714 136.072 108.169 136.475 106.747 137.165C105.324 137.855 104.051 138.819 103 140C101.949 141.182 101.142 142.56 100.624 144.054C100.105 145.548 99.8863 147.129 99.9792 148.708C100.072 150.286 100.475 151.831 101.165 153.254C101.855 154.677 102.818 155.95 104 157C115.44 167.169 130.333 172.581 145.633 172.13C160.932 171.678 175.48 165.396 186.3 154.57L210.42 130.46C221.672 119.198 227.994 103.931 228 88.0116C228.006 72.092 221.694 56.8206 210.45 45.5504V45.5304Z" fill="black"/>
</svg>
