<svg width="16" height="16" viewBox="0 0 16 16" fill="none" xmlns="http://www.w3.org/2000/svg">
<circle cx="7.99992" cy="6.00016" r="0.666667" fill="#64748B"/>
<path fill-rule="evenodd" clip-rule="evenodd" d="M7.99997 1.3335C10.5773 1.3335 12.6666 3.42283 12.6666 6.00016C12.76 8.08683 11.0866 10.8668 8.53997 14.3868C8.41459 14.56 8.21377 14.6625 7.99997 14.6625C7.78617 14.6625 7.58535 14.56 7.45997 14.3868C4.9133 10.8602 3.23997 8.08016 3.3333 6.00016C3.3333 3.42283 5.42264 1.3335 7.99997 1.3335ZM5.99997 6.00016C5.99997 7.10473 6.8954 8.00016 7.99997 8.00016C8.5304 8.00016 9.03911 7.78945 9.41419 7.41438C9.78926 7.0393 9.99997 6.5306 9.99997 6.00016C9.99997 4.89559 9.10454 4.00016 7.99997 4.00016C6.8954 4.00016 5.99997 4.89559 5.99997 6.00016Z" fill="#64748B"/>
</svg>
