<svg width="30" height="24" viewBox="0 0 30 24" fill="none" xmlns="http://www.w3.org/2000/svg">
<path d="M28.5 1.5H1.5C0.671719 1.5 0 2.17172 0 3V21C0 21.8283 0.671719 22.5 1.5 22.5H28.5C29.3283 22.5 30 21.8283 30 21V3C30 2.17172 29.3283 1.5 28.5 1.5ZM8.25 15.3694V16.125C8.25 16.3322 8.08219 16.5 7.875 16.5H7.125C6.91781 16.5 6.75 16.3322 6.75 16.125V15.3614C6.22078 15.3342 5.70609 15.1495 5.27953 14.8294C5.09672 14.692 5.08734 14.4183 5.25281 14.2603L5.80359 13.7348C5.93344 13.6111 6.12656 13.6055 6.27844 13.7006C6.45984 13.8141 6.66562 13.875 6.87937 13.875H8.19703C8.50172 13.875 8.75016 13.5975 8.75016 13.2567C8.75016 12.9778 8.58094 12.7322 8.33906 12.66L6.22969 12.0272C5.35828 11.7656 4.74937 10.9294 4.74937 9.99328C4.74937 8.84391 5.64234 7.91016 6.74953 7.88062V7.125C6.74953 6.91781 6.91734 6.75 7.12453 6.75H7.87453C8.08172 6.75 8.24953 6.91781 8.24953 7.125V7.88859C8.77875 7.91578 9.29344 8.1 9.72 8.42062C9.90281 8.55797 9.91219 8.83172 9.74672 8.98969L9.19594 9.51516C9.06609 9.63891 8.87297 9.64453 8.72109 9.54938C8.53969 9.43547 8.33391 9.375 8.12016 9.375H6.8025C6.49781 9.375 6.24938 9.6525 6.24938 9.99328C6.24938 10.2722 6.41859 10.5178 6.66047 10.59L8.76984 11.2228C9.64125 11.4844 10.2502 12.3206 10.2502 13.2567C10.2502 14.4066 9.35719 15.3398 8.25 15.3694ZM19.5 14.625C19.5 14.8322 19.3322 15 19.125 15H13.875C13.6678 15 13.5 14.8322 13.5 14.625V13.875C13.5 13.6678 13.6678 13.5 13.875 13.5H19.125C19.3322 13.5 19.5 13.6678 19.5 13.875V14.625ZM27 14.625C27 14.8322 26.8322 15 26.625 15H22.875C22.6678 15 22.5 14.8322 22.5 14.625V13.875C22.5 13.6678 22.6678 13.5 22.875 13.5H26.625C26.8322 13.5 27 13.6678 27 13.875V14.625ZM27 10.125C27 10.3322 26.8322 10.5 26.625 10.5H13.875C13.6678 10.5 13.5 10.3322 13.5 10.125V9.375C13.5 9.16781 13.6678 9 13.875 9H26.625C26.8322 9 27 9.16781 27 9.375V10.125Z" fill="#64748B"/>
</svg>
