<svg width="16" height="16" viewBox="0 0 16 16" fill="none" xmlns="http://www.w3.org/2000/svg">
<g clip-path="url(#clip0_638_8820)">
<path fill-rule="evenodd" clip-rule="evenodd" d="M15.7601 6.29579C15.7601 7.07569 15.6065 7.84796 15.308 8.56849C15.0096 9.28903 14.5721 9.94372 14.0206 10.4952C13.4692 11.0467 12.8145 11.4841 12.0939 11.7826C11.3734 12.081 10.6011 12.2346 9.82123 12.2346C9.04132 12.2346 8.26906 12.081 7.54852 11.7826C6.82799 11.4841 6.17329 11.0467 5.62182 10.4952C5.07034 9.94372 4.63289 9.28903 4.33444 8.56849C4.03598 7.84796 3.88237 7.07569 3.88237 6.29579C3.88237 4.72071 4.50807 3.21014 5.62182 2.09638C6.73557 0.982633 8.24614 0.356934 9.82123 0.356934C11.3963 0.356934 12.9069 0.982633 14.0206 2.09638C15.1344 3.21014 15.7601 4.72071 15.7601 6.29579ZM9.8218 1.81122C10.0491 1.81122 10.2671 1.90152 10.4279 2.06227C10.5886 2.22302 10.6789 2.44103 10.6789 2.66836V3.03065C11.0074 3.10897 11.3111 3.26828 11.5622 3.49406C11.8133 3.71983 12.0039 4.00488 12.1167 4.32322C12.1924 4.53767 12.1799 4.77343 12.0819 4.97865C11.9838 5.18387 11.8082 5.34173 11.5938 5.4175C11.3793 5.49328 11.1436 5.48077 10.9384 5.38271C10.7331 5.28466 10.5753 5.10909 10.4995 4.89465C10.4784 4.83462 10.4391 4.78266 10.387 4.746C10.335 4.70933 10.2729 4.68979 10.2092 4.69008H9.82865H9.82294H9.81723H9.3098C9.26489 4.69023 9.22162 4.7069 9.18822 4.73691C9.15481 4.76692 9.13362 4.80817 9.12868 4.8528C9.12373 4.89743 9.13539 4.94232 9.16141 4.97891C9.18744 5.01551 9.22602 5.04124 9.2698 5.05122L10.6424 5.35065C11.0895 5.44886 11.4901 5.69582 11.7787 6.05119C12.0673 6.40655 12.2268 6.84929 12.2312 7.30706C12.2355 7.76482 12.0845 8.21054 11.8028 8.57136C11.521 8.93218 11.1252 9.18676 10.6801 9.2935V9.65579C10.6801 9.88312 10.5898 10.1011 10.429 10.2619C10.2683 10.4226 10.0503 10.5129 9.82294 10.5129C9.59561 10.5129 9.37759 10.4226 9.21685 10.2619C9.0561 10.1011 8.9658 9.88312 8.9658 9.65579V9.2935C8.63744 9.21489 8.33393 9.05548 8.08284 8.82974C7.83176 8.60401 7.64106 8.31911 7.52808 8.00093C7.48613 7.89393 7.46614 7.77958 7.46927 7.66469C7.47241 7.5498 7.49862 7.43672 7.54635 7.33216C7.59408 7.22761 7.66235 7.13372 7.74709 7.05608C7.83184 6.97844 7.93133 6.91864 8.03966 6.88023C8.14798 6.84183 8.26293 6.82559 8.37765 6.83251C8.49237 6.83942 8.60454 6.86933 8.70747 6.92047C8.8104 6.97161 8.90199 7.04292 8.9768 7.13018C9.05161 7.21743 9.10811 7.31883 9.14294 7.42836C9.16417 7.48842 9.20347 7.54044 9.25545 7.57727C9.30742 7.6141 9.36952 7.63394 9.43322 7.63408H10.2104C10.2857 7.63297 10.3581 7.60432 10.4138 7.55352C10.4695 7.50272 10.5047 7.4333 10.5127 7.35835C10.5207 7.2834 10.501 7.20811 10.4573 7.14668C10.4136 7.08526 10.3489 7.04195 10.2755 7.02493L8.90294 6.7255C8.47505 6.63178 8.09278 6.39287 7.82101 6.04933C7.54924 5.70579 7.40473 5.2788 7.412 4.84082C7.41926 4.40285 7.57787 3.98088 7.86088 3.64655C8.1439 3.31222 8.53389 3.08613 8.96465 3.00665V2.66836C8.96465 2.5558 8.98682 2.44434 9.0299 2.34035C9.07297 2.23635 9.13611 2.14186 9.21571 2.06227C9.2953 1.98268 9.38979 1.91954 9.49378 1.87647C9.59778 1.83339 9.70923 1.81122 9.8218 1.81122ZM9.8218 13.6626C10.1944 13.6626 10.5612 13.6352 10.9189 13.5815C10.3906 14.2119 9.73712 14.7256 8.99985 15.0902C8.26258 15.4547 7.45762 15.6622 6.63597 15.6993C5.81433 15.7365 4.99393 15.6025 4.22677 15.306C3.4596 15.0095 2.7624 14.5568 2.17935 13.9767C1.5963 13.3966 1.14012 12.7017 0.839711 11.936C0.539304 11.1704 0.401225 10.3507 0.434225 9.52883C0.467226 8.70701 0.670586 7.90101 1.03142 7.16191C1.39225 6.4228 1.90268 5.76671 2.53037 5.23522C2.37817 6.28138 2.45292 7.34804 2.74954 8.36275C3.04615 9.37745 3.55769 10.3164 4.24939 11.1159C4.9411 11.9154 5.79677 12.5566 6.75828 12.9961C7.7198 13.4355 8.76462 13.6628 9.8218 13.6626Z" fill="#64748B"/>
</g>
<defs>
<clipPath id="clip0_638_8820">
<rect width="16" height="16" fill="white"/>
</clipPath>
</defs>
</svg>
