<svg width="31" height="36" viewBox="0 0 31 36" fill="none" xmlns="http://www.w3.org/2000/svg">
<path fill-rule="evenodd" clip-rule="evenodd" d="M1.20286 1.13143C1.92552 0.407869 2.90594 0.000902318 3.92857 2.0507e-06H19.3571C19.5261 -0.000299699 19.6935 0.0327021 19.8496 0.0971208C20.0058 0.161539 20.1478 0.256112 20.2674 0.375431L30.5531 10.6611C30.6725 10.7808 30.767 10.9227 30.8314 11.0789C30.8959 11.2351 30.9289 11.4025 30.9286 11.5714V32.1429C30.9286 33.1658 30.5222 34.1469 29.7988 34.8703C29.0755 35.5936 28.0944 36 27.0714 36H3.92857C2.90559 36 1.92451 35.5936 1.20116 34.8703C0.477803 34.1469 0.0714264 33.1658 0.0714264 32.1429V3.85715C0.0714264 2.83372 0.477712 1.85143 1.20286 1.13143ZM15.9809 8.82772L16.2483 9.09515C16.5466 9.29057 16.8037 9.54772 16.9991 9.846L21.7666 14.6134C21.9914 14.8382 22.1445 15.1246 22.2065 15.4364C22.2686 15.7482 22.2368 16.0714 22.1151 16.3651C21.9934 16.6588 21.7874 16.9098 21.523 17.0864C21.2587 17.263 20.9479 17.3572 20.63 17.3571H17.4157V26.6786C17.4157 27.3606 17.1448 28.0146 16.6626 28.4969C16.1803 28.9791 15.5263 29.25 14.8443 29.25C14.1623 29.25 13.5082 28.9791 13.026 28.4969C12.5438 28.0146 12.2729 27.3606 12.2729 26.6786V17.3571H9.05857C8.74066 17.3572 8.42988 17.263 8.16553 17.0864C7.90118 16.9098 7.69515 16.6588 7.57348 16.3651C7.45181 16.0714 7.41999 15.7482 7.48202 15.4364C7.54406 15.1246 7.69717 14.8382 7.922 14.6134L12.6894 9.84857C12.8849 9.55029 13.142 9.29315 13.4403 9.09772L13.7077 8.83029C13.857 8.68101 14.0341 8.56259 14.2292 8.48179C14.4242 8.401 14.6332 8.35942 14.8443 8.35942C15.0554 8.35942 15.2644 8.401 15.4594 8.48179C15.6544 8.56259 15.8316 8.67844 15.9809 8.82772Z" fill="url(#paint0_linear_153_4048)"/>
<defs>
<linearGradient id="paint0_linear_153_4048" x1="-0.614288" y1="-1.27895" x2="22.1461" y2="2.56282" gradientUnits="userSpaceOnUse">
<stop stop-color="#F97316"/>
<stop offset="1" stop-color="#EA580C"/>
</linearGradient>
</defs>
</svg>
