<svg width="299" height="517" viewBox="0 0 299 517" fill="none" xmlns="http://www.w3.org/2000/svg">
<g clip-path="url(#clip0_509_8750)">
<path d="M208 35C253.5 35 253.5 211.889 299 234" stroke="url(#paint0_linear_509_8750)" stroke-width="3" stroke-dasharray="0"/>
<path d="M138 122C218.5 122 218.5 221.556 299 234" stroke="url(#paint1_linear_509_8750)" stroke-width="3" stroke-dasharray="0"/>
<path d="M157 259C228 259 228 236.113 299 234" stroke="url(#paint2_linear_509_8750)" stroke-width="3" stroke-dasharray="0"/>
<path d="M138 396C218.5 396 218.5 235.863 299 234" stroke="url(#paint3_linear_509_8750)" stroke-width="3" stroke-dasharray="0"/>
<path d="M208 482C253.5 482 253.5 237.297 299 234" stroke="url(#paint4_linear_509_8750)" stroke-width="3" stroke-dasharray="0"/>
<g filter="url(#filter0_dddddd_509_8750)">
<rect x="151" width="70" height="70" rx="8" fill="#F8FAFC"/>
<g clip-path="url(#clip1_509_8750)">
<path d="M200.25 23.0001H196.25V26.0001C196.25 26.289 196.193 26.5751 196.083 26.842C195.972 27.1089 195.81 27.3515 195.606 27.5558C195.401 27.76 195.159 27.9221 194.892 28.0326C194.625 28.1432 194.339 28.2001 194.05 28.2001C193.761 28.2001 193.475 28.1432 193.208 28.0326C192.941 27.9221 192.699 27.76 192.494 27.5558C192.29 27.3515 192.128 27.1089 192.017 26.842C191.907 26.5751 191.85 26.289 191.85 26.0001V23.0001H180.2V26.0001C180.2 26.5836 179.968 27.1432 179.556 27.5557C179.143 27.9683 178.583 28.2001 178 28.2001C177.417 28.2001 176.857 27.9683 176.444 27.5557C176.032 27.1432 175.8 26.5836 175.8 26.0001V23.0001H171.8C171.562 22.9974 171.326 23.0424 171.106 23.1326C170.885 23.2227 170.685 23.3561 170.518 23.5248C170.35 23.6936 170.218 23.8943 170.129 24.115C170.04 24.3358 169.996 24.5722 170 24.8101V47.1901C169.996 47.4239 170.038 47.6561 170.124 47.8736C170.21 48.0911 170.338 48.2895 170.5 48.4576C170.663 48.6257 170.857 48.7601 171.071 48.8532C171.286 48.9463 171.516 48.9962 171.75 49.0001H200.25C200.484 48.9962 200.714 48.9463 200.929 48.8532C201.143 48.7601 201.337 48.6257 201.5 48.4576C201.662 48.2895 201.79 48.0911 201.876 47.8736C201.962 47.6561 202.004 47.4239 202 47.1901V24.8101C202.004 24.5764 201.962 24.3441 201.876 24.1266C201.79 23.9091 201.662 23.7107 201.5 23.5426C201.337 23.3745 201.143 23.2401 200.929 23.147C200.714 23.0539 200.484 23.004 200.25 23.0001ZM178 43.0001H176V41.0001H178V43.0001ZM178 38.0001H176V36.0001H178V38.0001ZM178 33.0001H176V31.0001H178V33.0001ZM184 43.0001H182V41.0001H184V43.0001ZM184 38.0001H182V36.0001H184V38.0001ZM184 33.0001H182V31.0001H184V33.0001ZM190 43.0001H188V41.0001H190V43.0001ZM190 38.0001H188V36.0001H190V38.0001ZM190 33.0001H188V31.0001H190V33.0001ZM196 43.0001H194V41.0001H196V43.0001ZM196 38.0001H194V36.0001H196V38.0001ZM196 33.0001H194V31.0001H196V33.0001Z" fill="url(#paint5_linear_509_8750)"/>
<path d="M178 27C178.265 27 178.52 26.8946 178.707 26.7071C178.895 26.5196 179 26.2652 179 26V20C179 19.7348 178.895 19.4804 178.707 19.2929C178.52 19.1054 178.265 19 178 19C177.735 19 177.48 19.1054 177.293 19.2929C177.105 19.4804 177 19.7348 177 20V26C177 26.2652 177.105 26.5196 177.293 26.7071C177.48 26.8946 177.735 27 178 27Z" fill="url(#paint6_linear_509_8750)"/>
<path d="M194 27C194.265 27 194.52 26.8946 194.707 26.7071C194.895 26.5196 195 26.2652 195 26V20C195 19.7348 194.895 19.4804 194.707 19.2929C194.52 19.1054 194.265 19 194 19C193.735 19 193.48 19.1054 193.293 19.2929C193.105 19.4804 193 19.7348 193 20V26C193 26.2652 193.105 26.5196 193.293 26.7071C193.48 26.8946 193.735 27 194 27Z" fill="url(#paint7_linear_509_8750)"/>
</g>
</g>
<g filter="url(#filter1_dddddd_509_8750)">
<rect x="151" y="447" width="70" height="70" rx="8" fill="#F8FAFC"/>
<path d="M201.712 493.25H199.5V477.5C199.5 476.903 199.263 476.331 198.841 475.909C198.419 475.487 197.847 475.25 197.25 475.25H191.062C190.913 475.25 190.77 475.309 190.665 475.415C190.559 475.52 190.5 475.663 190.5 475.812V493.25H188.25V468.558C188.254 468.207 188.178 467.86 188.028 467.544C187.878 467.227 187.657 466.949 187.384 466.729C187.011 466.439 186.556 466.273 186.083 466.255C185.611 466.238 185.145 466.37 184.751 466.632L173.501 474.125C173.193 474.331 172.94 474.61 172.765 474.937C172.59 475.264 172.499 475.63 172.5 476.001V493.25H170.288C169.997 493.246 169.716 493.352 169.5 493.547C169.284 493.741 169.15 494.011 169.125 494.3C169.115 494.454 169.136 494.609 169.188 494.754C169.24 494.899 169.321 495.032 169.427 495.145C169.532 495.257 169.66 495.347 169.802 495.408C169.943 495.469 170.096 495.5 170.25 495.5H201.75C201.904 495.5 202.057 495.469 202.198 495.408C202.34 495.347 202.468 495.257 202.573 495.145C202.679 495.032 202.76 494.899 202.812 494.754C202.864 494.609 202.885 494.454 202.875 494.3C202.85 494.011 202.716 493.741 202.5 493.547C202.284 493.352 202.003 493.246 201.712 493.25ZM178.688 489.875C178.688 490.029 178.656 490.182 178.595 490.323C178.534 490.465 178.445 490.592 178.332 490.698C178.22 490.804 178.087 490.885 177.941 490.937C177.796 490.989 177.642 491.01 177.488 491C177.198 490.975 176.928 490.841 176.734 490.625C176.539 490.408 176.433 490.127 176.438 489.836V487.663C176.434 487.372 176.54 487.091 176.734 486.875C176.929 486.66 177.198 486.525 177.488 486.5C177.642 486.49 177.796 486.511 177.941 486.563C178.087 486.615 178.22 486.696 178.332 486.802C178.445 486.907 178.534 487.035 178.595 487.176C178.656 487.318 178.688 487.471 178.688 487.625V489.875ZM178.688 482C178.688 482.154 178.656 482.307 178.595 482.448C178.534 482.59 178.445 482.717 178.332 482.823C178.22 482.929 178.087 483.01 177.941 483.062C177.796 483.114 177.642 483.135 177.488 483.125C177.198 483.099 176.929 482.965 176.734 482.749C176.539 482.533 176.433 482.251 176.438 481.961V479.788C176.434 479.497 176.54 479.216 176.734 479C176.929 478.785 177.198 478.65 177.488 478.625C177.642 478.615 177.796 478.636 177.941 478.688C178.087 478.74 178.22 478.821 178.332 478.927C178.445 479.032 178.534 479.16 178.595 479.301C178.656 479.443 178.688 479.596 178.688 479.75V482ZM184.312 489.875C184.313 490.029 184.281 490.182 184.22 490.323C184.159 490.465 184.07 490.592 183.957 490.698C183.845 490.804 183.712 490.885 183.566 490.937C183.421 490.989 183.267 491.01 183.113 491C182.824 490.975 182.554 490.841 182.36 490.626C182.165 490.41 182.059 490.129 182.062 489.838V487.663C182.059 487.373 182.165 487.092 182.36 486.876C182.555 486.661 182.824 486.527 183.113 486.501C183.267 486.491 183.421 486.513 183.566 486.565C183.712 486.617 183.845 486.698 183.957 486.803C184.07 486.909 184.159 487.036 184.22 487.178C184.281 487.319 184.313 487.472 184.312 487.626V489.875ZM184.312 482C184.313 482.154 184.281 482.307 184.22 482.448C184.159 482.59 184.07 482.717 183.957 482.823C183.845 482.929 183.712 483.01 183.566 483.062C183.421 483.114 183.267 483.135 183.113 483.125C182.824 483.099 182.555 482.966 182.36 482.75C182.165 482.535 182.059 482.254 182.062 481.963V479.788C182.059 479.498 182.165 479.217 182.36 479.001C182.555 478.786 182.824 478.652 183.113 478.626C183.267 478.616 183.421 478.638 183.566 478.69C183.712 478.742 183.845 478.823 183.957 478.928C184.07 479.034 184.159 479.161 184.22 479.303C184.281 479.444 184.313 479.597 184.312 479.751V482Z" fill="url(#paint8_linear_509_8750)"/>
</g>
<g filter="url(#filter2_dddddd_509_8750)">
<rect x="81" y="87" width="70" height="70" rx="8" fill="#F8FAFC"/>
<path d="M119.563 110.25L112.417 135.771M105.271 115.354L98.125 122.5L105.271 129.646M127.729 115.354L134.875 122.5L127.729 129.646" stroke="url(#paint9_linear_509_8750)" stroke-width="4" stroke-linecap="round" stroke-linejoin="round"/>
</g>
<g filter="url(#filter3_dddddd_509_8750)">
<rect x="81" y="361" width="70" height="70" rx="8" fill="#F8FAFC"/>
<path d="M122 381L129.5 388.5V409.512C129.5 409.907 129.342 410.285 129.063 410.564C128.784 410.843 128.405 411 128.01 411H103.99C103.596 410.997 103.219 410.84 102.94 410.561C102.661 410.283 102.503 409.906 102.5 409.512V382.488C102.5 381.666 103.168 381 103.99 381H122ZM114.5 388.5V403.5H117.5V388.5H114.5ZM120.5 394.5V403.5H123.5V394.5H120.5ZM108.5 397.5V403.5H111.5V397.5H108.5Z" fill="url(#paint10_linear_509_8750)"/>
</g>
<g filter="url(#filter4_d_509_8750)">
<rect y="174" width="170" height="170" rx="8" fill="#F8FAFC"/>
<path d="M133.484 211.37C133.444 211.176 133.35 210.998 133.212 210.856C133.074 210.714 132.899 210.615 132.707 210.569C119.895 207.436 90.2915 218.599 74.2528 234.631C71.3922 237.469 68.7843 240.55 66.4587 243.841C61.5128 243.403 56.5669 243.769 52.3515 245.606C40.4581 250.841 36.9953 264.5 36.0306 270.375C35.9759 270.697 35.9965 271.027 36.0909 271.339C36.1853 271.651 36.3508 271.937 36.5745 272.175C36.7982 272.412 37.0739 272.595 37.38 272.707C37.686 272.82 38.0141 272.861 38.3384 272.825L57.4375 270.719C57.4511 272.159 57.538 273.597 57.6978 275.028C57.7939 276.022 58.2351 276.951 58.9447 277.653L66.3406 285.031C67.0437 285.74 67.9721 286.181 68.9656 286.278C70.3887 286.438 71.819 286.524 73.2509 286.539L71.1553 305.614C71.1203 305.938 71.161 306.266 71.274 306.572C71.387 306.877 71.5693 307.153 71.8067 307.377C72.044 307.6 72.3299 307.766 72.642 307.86C72.9541 307.955 73.2838 307.976 73.6053 307.921C79.47 306.981 93.1528 303.518 98.3569 291.625C100.194 287.409 100.571 282.487 100.146 277.566C103.445 275.24 106.534 272.631 109.38 269.769C125.469 253.761 136.568 224.818 133.484 211.37ZM93.3278 250.672C91.8587 249.204 90.858 247.333 90.4522 245.296C90.0465 243.259 90.2541 241.148 91.0486 239.229C91.8431 237.31 93.1889 235.669 94.9158 234.515C96.6426 233.361 98.673 232.745 100.75 232.745C102.827 232.745 104.857 233.361 106.584 234.515C108.311 235.669 109.657 237.31 110.451 239.229C111.246 241.148 111.453 243.259 111.048 245.296C110.642 247.333 109.641 249.204 108.172 250.672C107.198 251.648 106.041 252.422 104.767 252.95C103.494 253.478 102.129 253.75 100.75 253.75C99.3713 253.75 98.0061 253.478 96.7325 252.95C95.459 252.422 94.302 251.648 93.3278 250.672Z" fill="url(#paint11_linear_509_8750)"/>
<path d="M65.8375 290.375C64.6387 291.576 62.7159 292.044 60.4016 292.445C55.2019 293.331 50.6103 288.838 51.5444 283.581C51.9009 281.588 52.9553 278.795 53.6116 278.138C53.755 277.998 53.8505 277.815 53.8844 277.617C53.9184 277.419 53.8891 277.216 53.8007 277.035C53.7123 276.855 53.5693 276.707 53.392 276.612C53.2147 276.518 53.0122 276.482 52.8131 276.509C49.9054 276.865 47.2003 278.183 45.1284 280.254C39.9856 285.401 39.5 304.5 39.5 304.5C39.5 304.5 58.61 304.014 63.7528 298.867C65.8302 296.797 67.1501 294.088 67.5 291.176C67.5809 290.262 66.4675 289.717 65.8375 290.375Z" fill="url(#paint12_linear_509_8750)"/>
</g>
</g>
<defs>
<filter id="filter0_dddddd_509_8750" x="55" y="-69" width="262" height="262" filterUnits="userSpaceOnUse" color-interpolation-filters="sRGB">
<feFlood flood-opacity="0" result="BackgroundImageFix"/>
<feColorMatrix in="SourceAlpha" type="matrix" values="0 0 0 0 0 0 0 0 0 0 0 0 0 0 0 0 0 0 127 0" result="hardAlpha"/>
<feOffset dy="0.747159"/>
<feColorMatrix type="matrix" values="0 0 0 0 0.647059 0 0 0 0 0.647059 0 0 0 0 0.647059 0 0 0 0.0101843 0"/>
<feBlend mode="normal" in2="BackgroundImageFix" result="effect1_dropShadow_509_8750"/>
<feColorMatrix in="SourceAlpha" type="matrix" values="0 0 0 0 0 0 0 0 0 0 0 0 0 0 0 0 0 0 127 0" result="hardAlpha"/>
<feOffset dy="1.79553"/>
<feColorMatrix type="matrix" values="0 0 0 0 0.647059 0 0 0 0 0.647059 0 0 0 0 0.647059 0 0 0 0.0252232 0"/>
<feBlend mode="normal" in2="effect1_dropShadow_509_8750" result="effect2_dropShadow_509_8750"/>
<feColorMatrix in="SourceAlpha" type="matrix" values="0 0 0 0 0 0 0 0 0 0 0 0 0 0 0 0 0 0 127 0" result="hardAlpha"/>
<feOffset dy="3.38082"/>
<feColorMatrix type="matrix" values="0 0 0 0 0.647059 0 0 0 0 0.647059 0 0 0 0 0.647059 0 0 0 0.0418554 0"/>
<feBlend mode="normal" in2="effect2_dropShadow_509_8750" result="effect3_dropShadow_509_8750"/>
<feColorMatrix in="SourceAlpha" type="matrix" values="0 0 0 0 0 0 0 0 0 0 0 0 0 0 0 0 0 0 127 0" result="hardAlpha"/>
<feOffset dy="6.0308"/>
<feGaussianBlur stdDeviation="16.4909"/>
<feColorMatrix type="matrix" values="0 0 0 0 0.647059 0 0 0 0 0.647059 0 0 0 0 0.647059 0 0 0 0.0566888 0"/>
<feBlend mode="normal" in2="effect3_dropShadow_509_8750" result="effect4_dropShadow_509_8750"/>
<feColorMatrix in="SourceAlpha" type="matrix" values="0 0 0 0 0 0 0 0 0 0 0 0 0 0 0 0 0 0 127 0" result="hardAlpha"/>
<feOffset dy="11.28"/>
<feGaussianBlur stdDeviation="36.4771"/>
<feColorMatrix type="matrix" values="0 0 0 0 0.647059 0 0 0 0 0.647059 0 0 0 0 0.647059 0 0 0 0.0667786 0"/>
<feBlend mode="normal" in2="effect4_dropShadow_509_8750" result="effect5_dropShadow_509_8750"/>
<feColorMatrix in="SourceAlpha" type="matrix" values="0 0 0 0 0 0 0 0 0 0 0 0 0 0 0 0 0 0 127 0" result="hardAlpha"/>
<feOffset dy="27"/>
<feGaussianBlur stdDeviation="48"/>
<feColorMatrix type="matrix" values="0 0 0 0 0.647059 0 0 0 0 0.647059 0 0 0 0 0.647059 0 0 0 0.07 0"/>
<feBlend mode="normal" in2="effect5_dropShadow_509_8750" result="effect6_dropShadow_509_8750"/>
<feBlend mode="normal" in="SourceGraphic" in2="effect6_dropShadow_509_8750" result="shape"/>
</filter>
<filter id="filter1_dddddd_509_8750" x="55" y="378" width="262" height="262" filterUnits="userSpaceOnUse" color-interpolation-filters="sRGB">
<feFlood flood-opacity="0" result="BackgroundImageFix"/>
<feColorMatrix in="SourceAlpha" type="matrix" values="0 0 0 0 0 0 0 0 0 0 0 0 0 0 0 0 0 0 127 0" result="hardAlpha"/>
<feOffset dy="0.747159"/>
<feColorMatrix type="matrix" values="0 0 0 0 0.647059 0 0 0 0 0.647059 0 0 0 0 0.647059 0 0 0 0.0101843 0"/>
<feBlend mode="normal" in2="BackgroundImageFix" result="effect1_dropShadow_509_8750"/>
<feColorMatrix in="SourceAlpha" type="matrix" values="0 0 0 0 0 0 0 0 0 0 0 0 0 0 0 0 0 0 127 0" result="hardAlpha"/>
<feOffset dy="1.79553"/>
<feColorMatrix type="matrix" values="0 0 0 0 0.647059 0 0 0 0 0.647059 0 0 0 0 0.647059 0 0 0 0.0252232 0"/>
<feBlend mode="normal" in2="effect1_dropShadow_509_8750" result="effect2_dropShadow_509_8750"/>
<feColorMatrix in="SourceAlpha" type="matrix" values="0 0 0 0 0 0 0 0 0 0 0 0 0 0 0 0 0 0 127 0" result="hardAlpha"/>
<feOffset dy="3.38082"/>
<feColorMatrix type="matrix" values="0 0 0 0 0.647059 0 0 0 0 0.647059 0 0 0 0 0.647059 0 0 0 0.0418554 0"/>
<feBlend mode="normal" in2="effect2_dropShadow_509_8750" result="effect3_dropShadow_509_8750"/>
<feColorMatrix in="SourceAlpha" type="matrix" values="0 0 0 0 0 0 0 0 0 0 0 0 0 0 0 0 0 0 127 0" result="hardAlpha"/>
<feOffset dy="6.0308"/>
<feGaussianBlur stdDeviation="16.4909"/>
<feColorMatrix type="matrix" values="0 0 0 0 0.647059 0 0 0 0 0.647059 0 0 0 0 0.647059 0 0 0 0.0566888 0"/>
<feBlend mode="normal" in2="effect3_dropShadow_509_8750" result="effect4_dropShadow_509_8750"/>
<feColorMatrix in="SourceAlpha" type="matrix" values="0 0 0 0 0 0 0 0 0 0 0 0 0 0 0 0 0 0 127 0" result="hardAlpha"/>
<feOffset dy="11.28"/>
<feGaussianBlur stdDeviation="36.4771"/>
<feColorMatrix type="matrix" values="0 0 0 0 0.647059 0 0 0 0 0.647059 0 0 0 0 0.647059 0 0 0 0.0667786 0"/>
<feBlend mode="normal" in2="effect4_dropShadow_509_8750" result="effect5_dropShadow_509_8750"/>
<feColorMatrix in="SourceAlpha" type="matrix" values="0 0 0 0 0 0 0 0 0 0 0 0 0 0 0 0 0 0 127 0" result="hardAlpha"/>
<feOffset dy="27"/>
<feGaussianBlur stdDeviation="48"/>
<feColorMatrix type="matrix" values="0 0 0 0 0.647059 0 0 0 0 0.647059 0 0 0 0 0.647059 0 0 0 0.07 0"/>
<feBlend mode="normal" in2="effect5_dropShadow_509_8750" result="effect6_dropShadow_509_8750"/>
<feBlend mode="normal" in="SourceGraphic" in2="effect6_dropShadow_509_8750" result="shape"/>
</filter>
<filter id="filter2_dddddd_509_8750" x="-15" y="18" width="262" height="262" filterUnits="userSpaceOnUse" color-interpolation-filters="sRGB">
<feFlood flood-opacity="0" result="BackgroundImageFix"/>
<feColorMatrix in="SourceAlpha" type="matrix" values="0 0 0 0 0 0 0 0 0 0 0 0 0 0 0 0 0 0 127 0" result="hardAlpha"/>
<feOffset dy="0.747159"/>
<feColorMatrix type="matrix" values="0 0 0 0 0.647059 0 0 0 0 0.647059 0 0 0 0 0.647059 0 0 0 0.0101843 0"/>
<feBlend mode="normal" in2="BackgroundImageFix" result="effect1_dropShadow_509_8750"/>
<feColorMatrix in="SourceAlpha" type="matrix" values="0 0 0 0 0 0 0 0 0 0 0 0 0 0 0 0 0 0 127 0" result="hardAlpha"/>
<feOffset dy="1.79553"/>
<feColorMatrix type="matrix" values="0 0 0 0 0.647059 0 0 0 0 0.647059 0 0 0 0 0.647059 0 0 0 0.0252232 0"/>
<feBlend mode="normal" in2="effect1_dropShadow_509_8750" result="effect2_dropShadow_509_8750"/>
<feColorMatrix in="SourceAlpha" type="matrix" values="0 0 0 0 0 0 0 0 0 0 0 0 0 0 0 0 0 0 127 0" result="hardAlpha"/>
<feOffset dy="3.38082"/>
<feColorMatrix type="matrix" values="0 0 0 0 0.647059 0 0 0 0 0.647059 0 0 0 0 0.647059 0 0 0 0.0418554 0"/>
<feBlend mode="normal" in2="effect2_dropShadow_509_8750" result="effect3_dropShadow_509_8750"/>
<feColorMatrix in="SourceAlpha" type="matrix" values="0 0 0 0 0 0 0 0 0 0 0 0 0 0 0 0 0 0 127 0" result="hardAlpha"/>
<feOffset dy="6.0308"/>
<feGaussianBlur stdDeviation="16.4909"/>
<feColorMatrix type="matrix" values="0 0 0 0 0.647059 0 0 0 0 0.647059 0 0 0 0 0.647059 0 0 0 0.0566888 0"/>
<feBlend mode="normal" in2="effect3_dropShadow_509_8750" result="effect4_dropShadow_509_8750"/>
<feColorMatrix in="SourceAlpha" type="matrix" values="0 0 0 0 0 0 0 0 0 0 0 0 0 0 0 0 0 0 127 0" result="hardAlpha"/>
<feOffset dy="11.28"/>
<feGaussianBlur stdDeviation="36.4771"/>
<feColorMatrix type="matrix" values="0 0 0 0 0.647059 0 0 0 0 0.647059 0 0 0 0 0.647059 0 0 0 0.0667786 0"/>
<feBlend mode="normal" in2="effect4_dropShadow_509_8750" result="effect5_dropShadow_509_8750"/>
<feColorMatrix in="SourceAlpha" type="matrix" values="0 0 0 0 0 0 0 0 0 0 0 0 0 0 0 0 0 0 127 0" result="hardAlpha"/>
<feOffset dy="27"/>
<feGaussianBlur stdDeviation="48"/>
<feColorMatrix type="matrix" values="0 0 0 0 0.647059 0 0 0 0 0.647059 0 0 0 0 0.647059 0 0 0 0.07 0"/>
<feBlend mode="normal" in2="effect5_dropShadow_509_8750" result="effect6_dropShadow_509_8750"/>
<feBlend mode="normal" in="SourceGraphic" in2="effect6_dropShadow_509_8750" result="shape"/>
</filter>
<filter id="filter3_dddddd_509_8750" x="-15" y="292" width="262" height="262" filterUnits="userSpaceOnUse" color-interpolation-filters="sRGB">
<feFlood flood-opacity="0" result="BackgroundImageFix"/>
<feColorMatrix in="SourceAlpha" type="matrix" values="0 0 0 0 0 0 0 0 0 0 0 0 0 0 0 0 0 0 127 0" result="hardAlpha"/>
<feOffset dy="0.747159"/>
<feColorMatrix type="matrix" values="0 0 0 0 0.647059 0 0 0 0 0.647059 0 0 0 0 0.647059 0 0 0 0.0101843 0"/>
<feBlend mode="normal" in2="BackgroundImageFix" result="effect1_dropShadow_509_8750"/>
<feColorMatrix in="SourceAlpha" type="matrix" values="0 0 0 0 0 0 0 0 0 0 0 0 0 0 0 0 0 0 127 0" result="hardAlpha"/>
<feOffset dy="1.79553"/>
<feColorMatrix type="matrix" values="0 0 0 0 0.647059 0 0 0 0 0.647059 0 0 0 0 0.647059 0 0 0 0.0252232 0"/>
<feBlend mode="normal" in2="effect1_dropShadow_509_8750" result="effect2_dropShadow_509_8750"/>
<feColorMatrix in="SourceAlpha" type="matrix" values="0 0 0 0 0 0 0 0 0 0 0 0 0 0 0 0 0 0 127 0" result="hardAlpha"/>
<feOffset dy="3.38082"/>
<feColorMatrix type="matrix" values="0 0 0 0 0.647059 0 0 0 0 0.647059 0 0 0 0 0.647059 0 0 0 0.0418554 0"/>
<feBlend mode="normal" in2="effect2_dropShadow_509_8750" result="effect3_dropShadow_509_8750"/>
<feColorMatrix in="SourceAlpha" type="matrix" values="0 0 0 0 0 0 0 0 0 0 0 0 0 0 0 0 0 0 127 0" result="hardAlpha"/>
<feOffset dy="6.0308"/>
<feGaussianBlur stdDeviation="16.4909"/>
<feColorMatrix type="matrix" values="0 0 0 0 0.647059 0 0 0 0 0.647059 0 0 0 0 0.647059 0 0 0 0.0566888 0"/>
<feBlend mode="normal" in2="effect3_dropShadow_509_8750" result="effect4_dropShadow_509_8750"/>
<feColorMatrix in="SourceAlpha" type="matrix" values="0 0 0 0 0 0 0 0 0 0 0 0 0 0 0 0 0 0 127 0" result="hardAlpha"/>
<feOffset dy="11.28"/>
<feGaussianBlur stdDeviation="36.4771"/>
<feColorMatrix type="matrix" values="0 0 0 0 0.647059 0 0 0 0 0.647059 0 0 0 0 0.647059 0 0 0 0.0667786 0"/>
<feBlend mode="normal" in2="effect4_dropShadow_509_8750" result="effect5_dropShadow_509_8750"/>
<feColorMatrix in="SourceAlpha" type="matrix" values="0 0 0 0 0 0 0 0 0 0 0 0 0 0 0 0 0 0 127 0" result="hardAlpha"/>
<feOffset dy="27"/>
<feGaussianBlur stdDeviation="48"/>
<feColorMatrix type="matrix" values="0 0 0 0 0.647059 0 0 0 0 0.647059 0 0 0 0 0.647059 0 0 0 0.07 0"/>
<feBlend mode="normal" in2="effect5_dropShadow_509_8750" result="effect6_dropShadow_509_8750"/>
<feBlend mode="normal" in="SourceGraphic" in2="effect6_dropShadow_509_8750" result="shape"/>
</filter>
<filter id="filter4_d_509_8750" x="-25" y="153" width="220" height="220" filterUnits="userSpaceOnUse" color-interpolation-filters="sRGB">
<feFlood flood-opacity="0" result="BackgroundImageFix"/>
<feColorMatrix in="SourceAlpha" type="matrix" values="0 0 0 0 0 0 0 0 0 0 0 0 0 0 0 0 0 0 127 0" result="hardAlpha"/>
<feOffset dy="4"/>
<feGaussianBlur stdDeviation="12.5"/>
<feComposite in2="hardAlpha" operator="out"/>
<feColorMatrix type="matrix" values="0 0 0 0 0 0 0 0 0 0 0 0 0 0 0 0 0 0 0.04 0"/>
<feBlend mode="normal" in2="BackgroundImageFix" result="effect1_dropShadow_509_8750"/>
<feBlend mode="normal" in="SourceGraphic" in2="effect1_dropShadow_509_8750" result="shape"/>
</filter>
<linearGradient id="paint0_linear_509_8750" x1="253.5" y1="35" x2="253.5" y2="234" gradientUnits="userSpaceOnUse">
<stop stop-color="#EA580C" stop-opacity="0"/>
<stop offset="1" stop-color="#EA580C"/>
</linearGradient>
<linearGradient id="paint1_linear_509_8750" x1="218.5" y1="122" x2="218.5" y2="234" gradientUnits="userSpaceOnUse">
<stop stop-color="#EA580C" stop-opacity="0"/>
<stop offset="1" stop-color="#EA580C"/>
</linearGradient>
<linearGradient id="paint2_linear_509_8750" x1="157" y1="259" x2="299" y2="234" gradientUnits="userSpaceOnUse">
<stop stop-color="#EA580C" stop-opacity="0"/>
<stop offset="1" stop-color="#EA580C"/>
</linearGradient>
<linearGradient id="paint3_linear_509_8750" x1="145" y1="396" x2="299" y2="234" gradientUnits="userSpaceOnUse">
<stop stop-color="#EA580C" stop-opacity="0"/>
<stop offset="1" stop-color="#EA580C"/>
</linearGradient>
<linearGradient id="paint4_linear_509_8750" x1="208" y1="482" x2="262" y2="321.5" gradientUnits="userSpaceOnUse">
<stop stop-color="#EA580C" stop-opacity="0"/>
<stop offset="1" stop-color="#EA580C"/>
</linearGradient>
<linearGradient id="paint5_linear_509_8750" x1="186" y1="23" x2="186" y2="49.0001" gradientUnits="userSpaceOnUse">
<stop stop-color="#EA580C"/>
<stop offset="1" stop-color="#FDBA74"/>
</linearGradient>
<linearGradient id="paint6_linear_509_8750" x1="178" y1="19" x2="178" y2="27" gradientUnits="userSpaceOnUse">
<stop stop-color="#EA580C"/>
<stop offset="1" stop-color="#FDBA74"/>
</linearGradient>
<linearGradient id="paint7_linear_509_8750" x1="194" y1="19" x2="194" y2="27" gradientUnits="userSpaceOnUse">
<stop stop-color="#EA580C"/>
<stop offset="1" stop-color="#FDBA74"/>
</linearGradient>
<linearGradient id="paint8_linear_509_8750" x1="186" y1="466.254" x2="186" y2="495.5" gradientUnits="userSpaceOnUse">
<stop stop-color="#052E16"/>
<stop offset="1" stop-color="#22C55E"/>
</linearGradient>
<linearGradient id="paint9_linear_509_8750" x1="116.5" y1="110.25" x2="116.5" y2="135.771" gradientUnits="userSpaceOnUse">
<stop stop-color="#0F766E"/>
<stop offset="1" stop-color="#0C4A6E"/>
</linearGradient>
<linearGradient id="paint10_linear_509_8750" x1="116" y1="381" x2="116" y2="411" gradientUnits="userSpaceOnUse">
<stop stop-color="#1E40AF"/>
<stop offset="1" stop-color="#06B6D4"/>
</linearGradient>
<linearGradient id="paint11_linear_509_8750" x1="85" y1="210.041" x2="85" y2="307.951" gradientUnits="userSpaceOnUse">
<stop stop-color="#9F1239"/>
<stop offset="1" stop-color="#F87171"/>
</linearGradient>
<linearGradient id="paint12_linear_509_8750" x1="53.5021" y1="276.5" x2="53.5021" y2="304.5" gradientUnits="userSpaceOnUse">
<stop stop-color="#9F1239"/>
<stop offset="1" stop-color="#F87171"/>
</linearGradient>
<clipPath id="clip0_509_8750">
<rect width="299" height="517" fill="white"/>
</clipPath>
<clipPath id="clip1_509_8750">
<rect width="36" height="36" fill="white" transform="translate(168 17)"/>
</clipPath>
</defs>
</svg>
